<mxfile host="Electron" agent="Mozilla/5.0 (Windows NT 10.0; Win64; x64) AppleWebKit/537.36 (KHTML, like Gecko) draw.io/24.7.8 Chrome/128.0.6613.36 Electron/32.0.1 Safari/537.36" version="24.7.8">
  <diagram name="Page-1" id="SOK6qivxZltzrpx1qwzV">
    <mxGraphModel dx="1687" dy="984" grid="1" gridSize="10" guides="1" tooltips="1" connect="1" arrows="1" fold="1" page="1" pageScale="1" pageWidth="850" pageHeight="1100" math="0" shadow="0">
      <root>
        <mxCell id="0" />
        <mxCell id="1" parent="0" />
        <mxCell id="2KQYl6xa4NdO4irz_cdd-4" value="Web Form" style="shape=umlLifeline;perimeter=lifelinePerimeter;whiteSpace=wrap;html=1;container=1;dropTarget=0;collapsible=0;recursiveResize=0;outlineConnect=0;portConstraint=eastwest;newEdgeStyle={&quot;curved&quot;:0,&quot;rounded&quot;:0};" parent="1" vertex="1">
          <mxGeometry x="280" y="120" width="100" height="800" as="geometry" />
        </mxCell>
        <mxCell id="2KQYl6xa4NdO4irz_cdd-10" value="" style="html=1;points=[[0,0,0,0,5],[0,1,0,0,-5],[1,0,0,0,5],[1,1,0,0,-5]];perimeter=orthogonalPerimeter;outlineConnect=0;targetShapes=umlLifeline;portConstraint=eastwest;newEdgeStyle={&quot;curved&quot;:0,&quot;rounded&quot;:0};" parent="2KQYl6xa4NdO4irz_cdd-4" vertex="1">
          <mxGeometry x="45" y="80" width="10" height="40" as="geometry" />
        </mxCell>
        <mxCell id="2KQYl6xa4NdO4irz_cdd-23" value="" style="html=1;points=[[0,0,0,0,5],[0,1,0,0,-5],[1,0,0,0,5],[1,1,0,0,-5]];perimeter=orthogonalPerimeter;outlineConnect=0;targetShapes=umlLifeline;portConstraint=eastwest;newEdgeStyle={&quot;curved&quot;:0,&quot;rounded&quot;:0};" parent="2KQYl6xa4NdO4irz_cdd-4" vertex="1">
          <mxGeometry x="51" y="91" width="10" height="20" as="geometry" />
        </mxCell>
        <mxCell id="gFZjyRnnP0gFH_lUAHbV-5" value="" style="html=1;points=[[0,0,0,0,5],[0,1,0,0,-5],[1,0,0,0,5],[1,1,0,0,-5]];perimeter=orthogonalPerimeter;outlineConnect=0;targetShapes=umlLifeline;portConstraint=eastwest;newEdgeStyle={&quot;curved&quot;:0,&quot;rounded&quot;:0};" vertex="1" parent="2KQYl6xa4NdO4irz_cdd-4">
          <mxGeometry x="45" y="650" width="10" height="80" as="geometry" />
        </mxCell>
        <mxCell id="2KQYl6xa4NdO4irz_cdd-3" value="" style="shape=umlLifeline;perimeter=lifelinePerimeter;whiteSpace=wrap;html=1;container=1;dropTarget=0;collapsible=0;recursiveResize=0;outlineConnect=0;portConstraint=eastwest;newEdgeStyle={&quot;curved&quot;:0,&quot;rounded&quot;:0};participant=umlActor;" parent="1" vertex="1">
          <mxGeometry x="150" y="120" width="20" height="800" as="geometry" />
        </mxCell>
        <mxCell id="2KQYl6xa4NdO4irz_cdd-9" value="" style="html=1;points=[[0,0,0,0,5],[0,1,0,0,-5],[1,0,0,0,5],[1,1,0,0,-5]];perimeter=orthogonalPerimeter;outlineConnect=0;targetShapes=umlLifeline;portConstraint=eastwest;newEdgeStyle={&quot;curved&quot;:0,&quot;rounded&quot;:0};" parent="2KQYl6xa4NdO4irz_cdd-3" vertex="1">
          <mxGeometry x="5" y="80" width="10" height="40" as="geometry" />
        </mxCell>
        <mxCell id="2KQYl6xa4NdO4irz_cdd-5" value="Orders API" style="shape=umlLifeline;perimeter=lifelinePerimeter;whiteSpace=wrap;html=1;container=1;dropTarget=0;collapsible=0;recursiveResize=0;outlineConnect=0;portConstraint=eastwest;newEdgeStyle={&quot;curved&quot;:0,&quot;rounded&quot;:0};" parent="1" vertex="1">
          <mxGeometry x="412" y="120" width="100" height="800" as="geometry" />
        </mxCell>
        <mxCell id="2KQYl6xa4NdO4irz_cdd-29" value="" style="html=1;points=[[0,0,0,0,5],[0,1,0,0,-5],[1,0,0,0,5],[1,1,0,0,-5]];perimeter=orthogonalPerimeter;outlineConnect=0;targetShapes=umlLifeline;portConstraint=eastwest;newEdgeStyle={&quot;curved&quot;:0,&quot;rounded&quot;:0};" parent="2KQYl6xa4NdO4irz_cdd-5" vertex="1">
          <mxGeometry x="45" y="159" width="10" height="281" as="geometry" />
        </mxCell>
        <mxCell id="2KQYl6xa4NdO4irz_cdd-40" value="" style="html=1;points=[[0,0,0,0,5],[0,1,0,0,-5],[1,0,0,0,5],[1,1,0,0,-5]];perimeter=orthogonalPerimeter;outlineConnect=0;targetShapes=umlLifeline;portConstraint=eastwest;newEdgeStyle={&quot;curved&quot;:0,&quot;rounded&quot;:0};" parent="2KQYl6xa4NdO4irz_cdd-5" vertex="1">
          <mxGeometry x="51" y="189" width="10" height="31" as="geometry" />
        </mxCell>
        <mxCell id="2KQYl6xa4NdO4irz_cdd-59" value="" style="html=1;points=[[0,0,0,0,5],[0,1,0,0,-5],[1,0,0,0,5],[1,1,0,0,-5]];perimeter=orthogonalPerimeter;outlineConnect=0;targetShapes=umlLifeline;portConstraint=eastwest;newEdgeStyle={&quot;curved&quot;:0,&quot;rounded&quot;:0};" parent="2KQYl6xa4NdO4irz_cdd-5" vertex="1">
          <mxGeometry x="45" y="697" width="10" height="70" as="geometry" />
        </mxCell>
        <mxCell id="2KQYl6xa4NdO4irz_cdd-64" value="" style="html=1;points=[[0,0,0,0,5],[0,1,0,0,-5],[1,0,0,0,5],[1,1,0,0,-5]];perimeter=orthogonalPerimeter;outlineConnect=0;targetShapes=umlLifeline;portConstraint=eastwest;newEdgeStyle={&quot;curved&quot;:0,&quot;rounded&quot;:0};" parent="2KQYl6xa4NdO4irz_cdd-5" vertex="1">
          <mxGeometry x="51" y="725" width="10" height="35" as="geometry" />
        </mxCell>
        <mxCell id="2KQYl6xa4NdO4irz_cdd-6" value="Faces Recognition Api" style="shape=umlLifeline;perimeter=lifelinePerimeter;whiteSpace=wrap;html=1;container=1;dropTarget=0;collapsible=0;recursiveResize=0;outlineConnect=0;portConstraint=eastwest;newEdgeStyle={&quot;curved&quot;:0,&quot;rounded&quot;:0};" parent="1" vertex="1">
          <mxGeometry x="799" y="120" width="100" height="800" as="geometry" />
        </mxCell>
        <mxCell id="2KQYl6xa4NdO4irz_cdd-7" value="Rabbit" style="shape=umlLifeline;perimeter=lifelinePerimeter;whiteSpace=wrap;html=1;container=1;dropTarget=0;collapsible=0;recursiveResize=0;outlineConnect=0;portConstraint=eastwest;newEdgeStyle={&quot;curved&quot;:0,&quot;rounded&quot;:0};" parent="1" vertex="1">
          <mxGeometry x="1129" y="120" width="100" height="800" as="geometry" />
        </mxCell>
        <mxCell id="2KQYl6xa4NdO4irz_cdd-24" value="" style="html=1;points=[[0,0,0,0,5],[0,1,0,0,-5],[1,0,0,0,5],[1,1,0,0,-5]];perimeter=orthogonalPerimeter;outlineConnect=0;targetShapes=umlLifeline;portConstraint=eastwest;newEdgeStyle={&quot;curved&quot;:0,&quot;rounded&quot;:0};" parent="2KQYl6xa4NdO4irz_cdd-7" vertex="1">
          <mxGeometry x="46" y="111" width="10" height="50" as="geometry" />
        </mxCell>
        <mxCell id="2KQYl6xa4NdO4irz_cdd-83" value="" style="html=1;points=[[0,0,0,0,5],[0,1,0,0,-5],[1,0,0,0,5],[1,1,0,0,-5]];perimeter=orthogonalPerimeter;outlineConnect=0;targetShapes=umlLifeline;portConstraint=eastwest;newEdgeStyle={&quot;curved&quot;:0,&quot;rounded&quot;:0};" parent="2KQYl6xa4NdO4irz_cdd-7" vertex="1">
          <mxGeometry x="45" y="620" width="10" height="80" as="geometry" />
        </mxCell>
        <mxCell id="2KQYl6xa4NdO4irz_cdd-58" value="" style="html=1;points=[[0,0,0,0,5],[0,1,0,0,-5],[1,0,0,0,5],[1,1,0,0,-5]];perimeter=orthogonalPerimeter;outlineConnect=0;targetShapes=umlLifeline;portConstraint=eastwest;newEdgeStyle={&quot;curved&quot;:0,&quot;rounded&quot;:0};" parent="2KQYl6xa4NdO4irz_cdd-7" vertex="1">
          <mxGeometry x="45" y="431" width="10" height="29" as="geometry" />
        </mxCell>
        <mxCell id="gFZjyRnnP0gFH_lUAHbV-3" value="" style="html=1;points=[[0,0,0,0,5],[0,1,0,0,-5],[1,0,0,0,5],[1,1,0,0,-5]];perimeter=orthogonalPerimeter;outlineConnect=0;targetShapes=umlLifeline;portConstraint=eastwest;newEdgeStyle={&quot;curved&quot;:0,&quot;rounded&quot;:0};" vertex="1" parent="2KQYl6xa4NdO4irz_cdd-7">
          <mxGeometry x="41" y="650" width="10" height="30" as="geometry" />
        </mxCell>
        <mxCell id="2KQYl6xa4NdO4irz_cdd-8" value="Notification Service" style="shape=umlLifeline;perimeter=lifelinePerimeter;whiteSpace=wrap;html=1;container=1;dropTarget=0;collapsible=0;recursiveResize=0;outlineConnect=0;portConstraint=eastwest;newEdgeStyle={&quot;curved&quot;:0,&quot;rounded&quot;:0};" parent="1" vertex="1">
          <mxGeometry x="969" y="120" width="100" height="800" as="geometry" />
        </mxCell>
        <mxCell id="2KQYl6xa4NdO4irz_cdd-68" value="" style="html=1;points=[[0,0,0,0,5],[0,1,0,0,-5],[1,0,0,0,5],[1,1,0,0,-5]];perimeter=orthogonalPerimeter;outlineConnect=0;targetShapes=umlLifeline;portConstraint=eastwest;newEdgeStyle={&quot;curved&quot;:0,&quot;rounded&quot;:0};" parent="2KQYl6xa4NdO4irz_cdd-8" vertex="1">
          <mxGeometry x="45" y="460" width="10" height="170" as="geometry" />
        </mxCell>
        <mxCell id="2KQYl6xa4NdO4irz_cdd-11" value="http post&lt;div&gt;send email and image&lt;/div&gt;" style="html=1;verticalAlign=bottom;endArrow=block;curved=0;rounded=0;exitX=1;exitY=0.004;exitDx=0;exitDy=0;exitPerimeter=0;" parent="1" source="2KQYl6xa4NdO4irz_cdd-9" target="2KQYl6xa4NdO4irz_cdd-10" edge="1">
          <mxGeometry relative="1" as="geometry">
            <mxPoint x="255" y="205" as="sourcePoint" />
          </mxGeometry>
        </mxCell>
        <mxCell id="2KQYl6xa4NdO4irz_cdd-12" value="return" style="html=1;verticalAlign=bottom;endArrow=open;dashed=1;endSize=8;curved=0;rounded=0;entryX=1.006;entryY=0.996;entryDx=0;entryDy=0;entryPerimeter=0;exitX=0.033;exitY=0.999;exitDx=0;exitDy=0;exitPerimeter=0;" parent="1" source="2KQYl6xa4NdO4irz_cdd-10" target="2KQYl6xa4NdO4irz_cdd-9" edge="1">
          <mxGeometry relative="1" as="geometry">
            <mxPoint x="255" y="275" as="targetPoint" />
          </mxGeometry>
        </mxCell>
        <mxCell id="2KQYl6xa4NdO4irz_cdd-25" value="dispatch IRegisterOrderCommand" style="html=1;verticalAlign=bottom;endArrow=block;curved=0;rounded=0;entryX=0;entryY=0.008;entryDx=0;entryDy=0;entryPerimeter=0;exitX=1.029;exitY=0.998;exitDx=0;exitDy=0;exitPerimeter=0;" parent="1" source="2KQYl6xa4NdO4irz_cdd-23" target="2KQYl6xa4NdO4irz_cdd-24" edge="1">
          <mxGeometry relative="1" as="geometry">
            <mxPoint x="440" y="228" as="sourcePoint" />
            <mxPoint as="offset" />
          </mxGeometry>
        </mxCell>
        <mxCell id="2KQYl6xa4NdO4irz_cdd-30" value="listen IRegisterOrderCommand" style="html=1;verticalAlign=bottom;endArrow=block;curved=0;rounded=0;exitX=-0.033;exitY=0.993;exitDx=0;exitDy=0;exitPerimeter=0;entryX=1.064;entryY=0.001;entryDx=0;entryDy=0;entryPerimeter=0;" parent="1" source="2KQYl6xa4NdO4irz_cdd-24" target="2KQYl6xa4NdO4irz_cdd-29" edge="1">
          <mxGeometry width="80" relative="1" as="geometry">
            <mxPoint x="932" y="390" as="sourcePoint" />
            <mxPoint x="1012" y="390" as="targetPoint" />
          </mxGeometry>
        </mxCell>
        <mxCell id="2KQYl6xa4NdO4irz_cdd-37" value="" style="html=1;points=[[0,0,0,0,5],[0,1,0,0,-5],[1,0,0,0,5],[1,1,0,0,-5]];perimeter=orthogonalPerimeter;outlineConnect=0;targetShapes=umlLifeline;portConstraint=eastwest;newEdgeStyle={&quot;curved&quot;:0,&quot;rounded&quot;:0};" parent="1" vertex="1">
          <mxGeometry x="462" y="374.06" width="10" height="60" as="geometry" />
        </mxCell>
        <mxCell id="2KQYl6xa4NdO4irz_cdd-34" value="" style="html=1;points=[[0,0,0,0,5],[0,1,0,0,-5],[1,0,0,0,5],[1,1,0,0,-5]];perimeter=orthogonalPerimeter;outlineConnect=0;targetShapes=umlLifeline;portConstraint=eastwest;newEdgeStyle={&quot;curved&quot;:0,&quot;rounded&quot;:0};" parent="1" vertex="1">
          <mxGeometry x="845" y="374.06" width="10" height="60" as="geometry" />
        </mxCell>
        <mxCell id="2KQYl6xa4NdO4irz_cdd-38" value="" style="html=1;points=[[0,0,0,0,5],[0,1,0,0,-5],[1,0,0,0,5],[1,1,0,0,-5]];perimeter=orthogonalPerimeter;outlineConnect=0;targetShapes=umlLifeline;portConstraint=eastwest;newEdgeStyle={&quot;curved&quot;:0,&quot;rounded&quot;:0};" parent="1" vertex="1">
          <mxGeometry x="850" y="405.06" width="10" height="19" as="geometry" />
        </mxCell>
        <mxCell id="2KQYl6xa4NdO4irz_cdd-39" value="store images locally" style="html=1;align=left;spacingLeft=2;endArrow=block;rounded=0;edgeStyle=orthogonalEdgeStyle;curved=0;rounded=0;" parent="1" target="2KQYl6xa4NdO4irz_cdd-38" edge="1">
          <mxGeometry relative="1" as="geometry">
            <mxPoint x="855" y="385.06" as="sourcePoint" />
            <Array as="points">
              <mxPoint x="885" y="415.06" />
            </Array>
          </mxGeometry>
        </mxCell>
        <mxCell id="2KQYl6xa4NdO4irz_cdd-35" value="get faces from image" style="html=1;verticalAlign=bottom;endArrow=block;curved=0;rounded=0;entryX=-0.007;entryY=-0.001;entryDx=0;entryDy=0;exitX=1.005;exitY=0.001;exitDx=0;exitDy=0;exitPerimeter=0;entryPerimeter=0;" parent="1" source="2KQYl6xa4NdO4irz_cdd-37" target="2KQYl6xa4NdO4irz_cdd-34" edge="1">
          <mxGeometry relative="1" as="geometry">
            <mxPoint x="586" y="379.06" as="sourcePoint" />
          </mxGeometry>
        </mxCell>
        <mxCell id="2KQYl6xa4NdO4irz_cdd-36" value="return" style="html=1;verticalAlign=bottom;endArrow=open;dashed=1;endSize=8;curved=0;rounded=0;exitX=-0.022;exitY=0.997;exitDx=0;exitDy=0;exitPerimeter=0;entryX=0.989;entryY=0.997;entryDx=0;entryDy=0;entryPerimeter=0;" parent="1" source="2KQYl6xa4NdO4irz_cdd-34" target="2KQYl6xa4NdO4irz_cdd-37" edge="1">
          <mxGeometry relative="1" as="geometry">
            <mxPoint x="586" y="449.05999999999995" as="targetPoint" />
          </mxGeometry>
        </mxCell>
        <mxCell id="2KQYl6xa4NdO4irz_cdd-44" value="save order" style="html=1;verticalAlign=bottom;endArrow=block;curved=0;rounded=0;entryX=-0.007;entryY=-0.001;entryDx=0;entryDy=0;exitX=1.005;exitY=0.001;exitDx=0;exitDy=0;exitPerimeter=0;entryPerimeter=0;" parent="1" source="2KQYl6xa4NdO4irz_cdd-40" target="2KQYl6xa4NdO4irz_cdd-41" edge="1">
          <mxGeometry relative="1" as="geometry">
            <mxPoint x="587" y="324" as="sourcePoint" />
          </mxGeometry>
        </mxCell>
        <mxCell id="2KQYl6xa4NdO4irz_cdd-45" value="return" style="html=1;verticalAlign=bottom;endArrow=open;dashed=1;endSize=8;curved=0;rounded=0;exitX=-0.022;exitY=0.997;exitDx=0;exitDy=0;exitPerimeter=0;entryX=0.989;entryY=0.997;entryDx=0;entryDy=0;entryPerimeter=0;" parent="1" source="2KQYl6xa4NdO4irz_cdd-41" target="2KQYl6xa4NdO4irz_cdd-40" edge="1">
          <mxGeometry relative="1" as="geometry">
            <mxPoint x="587" y="394" as="targetPoint" />
          </mxGeometry>
        </mxCell>
        <mxCell id="2KQYl6xa4NdO4irz_cdd-46" value="Database" style="shape=umlLifeline;perimeter=lifelinePerimeter;whiteSpace=wrap;html=1;container=1;dropTarget=0;collapsible=0;recursiveResize=0;outlineConnect=0;portConstraint=eastwest;newEdgeStyle={&quot;curved&quot;:0,&quot;rounded&quot;:0};" parent="1" vertex="1">
          <mxGeometry x="556" y="120" width="100" height="800" as="geometry" />
        </mxCell>
        <mxCell id="2KQYl6xa4NdO4irz_cdd-41" value="" style="html=1;points=[[0,0,0,0,5],[0,1,0,0,-5],[1,0,0,0,5],[1,1,0,0,-5]];perimeter=orthogonalPerimeter;outlineConnect=0;targetShapes=umlLifeline;portConstraint=eastwest;newEdgeStyle={&quot;curved&quot;:0,&quot;rounded&quot;:0};" parent="2KQYl6xa4NdO4irz_cdd-46" vertex="1">
          <mxGeometry x="45" y="189" width="10" height="31" as="geometry" />
        </mxCell>
        <mxCell id="2KQYl6xa4NdO4irz_cdd-67" value="" style="html=1;points=[[0,0,0,0,5],[0,1,0,0,-5],[1,0,0,0,5],[1,1,0,0,-5]];perimeter=orthogonalPerimeter;outlineConnect=0;targetShapes=umlLifeline;portConstraint=eastwest;newEdgeStyle={&quot;curved&quot;:0,&quot;rounded&quot;:0};" parent="2KQYl6xa4NdO4irz_cdd-46" vertex="1">
          <mxGeometry x="45" y="725" width="10" height="35" as="geometry" />
        </mxCell>
        <mxCell id="2KQYl6xa4NdO4irz_cdd-47" value="" style="html=1;points=[[0,0,0,0,5],[0,1,0,0,-5],[1,0,0,0,5],[1,1,0,0,-5]];perimeter=orthogonalPerimeter;outlineConnect=0;targetShapes=umlLifeline;portConstraint=eastwest;newEdgeStyle={&quot;curved&quot;:0,&quot;rounded&quot;:0};" parent="1" vertex="1">
          <mxGeometry x="462" y="478" width="10" height="31" as="geometry" />
        </mxCell>
        <mxCell id="2KQYl6xa4NdO4irz_cdd-48" value="save order" style="html=1;verticalAlign=bottom;endArrow=block;curved=0;rounded=0;entryX=-0.007;entryY=-0.001;entryDx=0;entryDy=0;exitX=1.005;exitY=0.001;exitDx=0;exitDy=0;exitPerimeter=0;entryPerimeter=0;" parent="1" source="2KQYl6xa4NdO4irz_cdd-47" target="2KQYl6xa4NdO4irz_cdd-50" edge="1">
          <mxGeometry relative="1" as="geometry">
            <mxPoint x="597" y="303" as="sourcePoint" />
          </mxGeometry>
        </mxCell>
        <mxCell id="2KQYl6xa4NdO4irz_cdd-49" value="return" style="html=1;verticalAlign=bottom;endArrow=open;dashed=1;endSize=8;curved=0;rounded=0;exitX=-0.022;exitY=0.997;exitDx=0;exitDy=0;exitPerimeter=0;entryX=0.989;entryY=0.997;entryDx=0;entryDy=0;entryPerimeter=0;" parent="1" source="2KQYl6xa4NdO4irz_cdd-50" target="2KQYl6xa4NdO4irz_cdd-47" edge="1">
          <mxGeometry relative="1" as="geometry">
            <mxPoint x="597" y="373" as="targetPoint" />
          </mxGeometry>
        </mxCell>
        <mxCell id="2KQYl6xa4NdO4irz_cdd-50" value="" style="html=1;points=[[0,0,0,0,5],[0,1,0,0,-5],[1,0,0,0,5],[1,1,0,0,-5]];perimeter=orthogonalPerimeter;outlineConnect=0;targetShapes=umlLifeline;portConstraint=eastwest;newEdgeStyle={&quot;curved&quot;:0,&quot;rounded&quot;:0};" parent="1" vertex="1">
          <mxGeometry x="601" y="478" width="10" height="31" as="geometry" />
        </mxCell>
        <mxCell id="2KQYl6xa4NdO4irz_cdd-55" value="if faces detected" style="shape=umlFrame;whiteSpace=wrap;html=1;pointerEvents=0;" parent="1" vertex="1">
          <mxGeometry x="382" y="448" width="238" height="71" as="geometry" />
        </mxCell>
        <mxCell id="2KQYl6xa4NdO4irz_cdd-56" value="" style="html=1;points=[[0,0,0,0,5],[0,1,0,0,-5],[1,0,0,0,5],[1,1,0,0,-5]];perimeter=orthogonalPerimeter;outlineConnect=0;targetShapes=umlLifeline;portConstraint=eastwest;newEdgeStyle={&quot;curved&quot;:0,&quot;rounded&quot;:0};" parent="1" vertex="1">
          <mxGeometry x="463" y="531" width="10" height="20" as="geometry" />
        </mxCell>
        <mxCell id="2KQYl6xa4NdO4irz_cdd-57" value="dispatch IOrderProcessedEvent" style="html=1;verticalAlign=bottom;endArrow=block;curved=0;rounded=0;exitX=1.029;exitY=0.998;exitDx=0;exitDy=0;exitPerimeter=0;entryX=0.005;entryY=0.001;entryDx=0;entryDy=0;entryPerimeter=0;" parent="1" source="2KQYl6xa4NdO4irz_cdd-56" target="2KQYl6xa4NdO4irz_cdd-58" edge="1">
          <mxGeometry relative="1" as="geometry">
            <mxPoint x="572" y="509" as="sourcePoint" />
            <mxPoint x="1232" y="551" as="targetPoint" />
            <mxPoint as="offset" />
          </mxGeometry>
        </mxCell>
        <mxCell id="2KQYl6xa4NdO4irz_cdd-60" value="&lt;font style=&quot;font-size: 10px;&quot;&gt;listen IOrderProcessedEvent&lt;/font&gt;" style="html=1;verticalAlign=bottom;endArrow=block;curved=0;rounded=0;exitX=-0.033;exitY=0.998;exitDx=0;exitDy=0;exitPerimeter=0;entryX=1.013;entryY=0.001;entryDx=0;entryDy=0;entryPerimeter=0;" parent="1" source="2KQYl6xa4NdO4irz_cdd-58" target="2KQYl6xa4NdO4irz_cdd-68" edge="1">
          <mxGeometry width="80" relative="1" as="geometry">
            <mxPoint x="1366.5865921787708" y="621" as="sourcePoint" />
            <mxPoint x="1096.5900000000001" y="601" as="targetPoint" />
          </mxGeometry>
        </mxCell>
        <mxCell id="2KQYl6xa4NdO4irz_cdd-65" value="update order status" style="html=1;verticalAlign=bottom;endArrow=block;curved=0;rounded=0;entryX=-0.007;entryY=-0.001;entryDx=0;entryDy=0;exitX=1.005;exitY=0.001;exitDx=0;exitDy=0;exitPerimeter=0;entryPerimeter=0;" parent="1" source="2KQYl6xa4NdO4irz_cdd-64" target="2KQYl6xa4NdO4irz_cdd-67" edge="1">
          <mxGeometry relative="1" as="geometry">
            <mxPoint x="597" y="440" as="sourcePoint" />
          </mxGeometry>
        </mxCell>
        <mxCell id="2KQYl6xa4NdO4irz_cdd-66" value="return" style="html=1;verticalAlign=bottom;endArrow=open;dashed=1;endSize=8;curved=0;rounded=0;exitX=-0.022;exitY=0.997;exitDx=0;exitDy=0;exitPerimeter=0;entryX=0.989;entryY=0.997;entryDx=0;entryDy=0;entryPerimeter=0;" parent="1" source="2KQYl6xa4NdO4irz_cdd-67" target="2KQYl6xa4NdO4irz_cdd-64" edge="1">
          <mxGeometry relative="1" as="geometry">
            <mxPoint x="597" y="510" as="targetPoint" />
          </mxGeometry>
        </mxCell>
        <mxCell id="2KQYl6xa4NdO4irz_cdd-80" value="" style="html=1;points=[[0,0,0,0,5],[0,1,0,0,-5],[1,0,0,0,5],[1,1,0,0,-5]];perimeter=orthogonalPerimeter;outlineConnect=0;targetShapes=umlLifeline;portConstraint=eastwest;newEdgeStyle={&quot;curved&quot;:0,&quot;rounded&quot;:0};" parent="1" vertex="1">
          <mxGeometry x="1021" y="620" width="10" height="30" as="geometry" />
        </mxCell>
        <mxCell id="2KQYl6xa4NdO4irz_cdd-81" value="store images locally" style="html=1;align=left;spacingLeft=2;endArrow=block;rounded=0;edgeStyle=orthogonalEdgeStyle;curved=0;rounded=0;" parent="1" target="2KQYl6xa4NdO4irz_cdd-80" edge="1">
          <mxGeometry relative="1" as="geometry">
            <mxPoint x="1026" y="600" as="sourcePoint" />
            <Array as="points">
              <mxPoint x="1056" y="630" />
            </Array>
          </mxGeometry>
        </mxCell>
        <mxCell id="2KQYl6xa4NdO4irz_cdd-82" value="" style="html=1;points=[[0,0,0,0,5],[0,1,0,0,-5],[1,0,0,0,5],[1,1,0,0,-5]];perimeter=orthogonalPerimeter;outlineConnect=0;targetShapes=umlLifeline;portConstraint=eastwest;newEdgeStyle={&quot;curved&quot;:0,&quot;rounded&quot;:0};" parent="1" vertex="1">
          <mxGeometry x="1020" y="710" width="10" height="31" as="geometry" />
        </mxCell>
        <mxCell id="2KQYl6xa4NdO4irz_cdd-85" value="&lt;font style=&quot;font-size: 8px;&quot;&gt;dispatch&amp;nbsp;IOrderDispatchedEvent&lt;/font&gt;" style="html=1;verticalAlign=bottom;endArrow=block;curved=0;rounded=0;exitX=1.051;exitY=0.993;exitDx=0;exitDy=0;exitPerimeter=0;entryX=-0.054;entryY=-0.002;entryDx=0;entryDy=0;entryPerimeter=0;" parent="1" source="2KQYl6xa4NdO4irz_cdd-82" target="2KQYl6xa4NdO4irz_cdd-83" edge="1">
          <mxGeometry width="80" relative="1" as="geometry">
            <mxPoint x="1119" y="760" as="sourcePoint" />
            <mxPoint x="1199" y="760" as="targetPoint" />
          </mxGeometry>
        </mxCell>
        <mxCell id="2KQYl6xa4NdO4irz_cdd-86" value="listen IOrderDispatchedEvent" style="html=1;verticalAlign=bottom;endArrow=block;curved=0;rounded=0;exitX=-0.072;exitY=0.997;exitDx=0;exitDy=0;exitPerimeter=0;entryX=0.979;entryY=0.001;entryDx=0;entryDy=0;entryPerimeter=0;" parent="1" source="2KQYl6xa4NdO4irz_cdd-83" target="2KQYl6xa4NdO4irz_cdd-59" edge="1">
          <mxGeometry width="80" relative="1" as="geometry">
            <mxPoint x="1143" y="790" as="sourcePoint" />
            <mxPoint x="870" y="790" as="targetPoint" />
          </mxGeometry>
        </mxCell>
        <mxCell id="2KQYl6xa4NdO4irz_cdd-87" value="SMTP Server" style="shape=umlLifeline;perimeter=lifelinePerimeter;whiteSpace=wrap;html=1;container=1;dropTarget=0;collapsible=0;recursiveResize=0;outlineConnect=0;portConstraint=eastwest;newEdgeStyle={&quot;curved&quot;:0,&quot;rounded&quot;:0};" parent="1" vertex="1">
          <mxGeometry x="1264" y="120" width="100" height="800" as="geometry" />
        </mxCell>
        <mxCell id="2KQYl6xa4NdO4irz_cdd-89" value="" style="html=1;points=[[0,0,0,0,5],[0,1,0,0,-5],[1,0,0,0,5],[1,1,0,0,-5]];perimeter=orthogonalPerimeter;outlineConnect=0;targetShapes=umlLifeline;portConstraint=eastwest;newEdgeStyle={&quot;curved&quot;:0,&quot;rounded&quot;:0};" parent="2KQYl6xa4NdO4irz_cdd-87" vertex="1">
          <mxGeometry x="45" y="540" width="10" height="30" as="geometry" />
        </mxCell>
        <mxCell id="2KQYl6xa4NdO4irz_cdd-92" value="" style="html=1;points=[[0,0,0,0,5],[0,1,0,0,-5],[1,0,0,0,5],[1,1,0,0,-5]];perimeter=orthogonalPerimeter;outlineConnect=0;targetShapes=umlLifeline;portConstraint=eastwest;newEdgeStyle={&quot;curved&quot;:0,&quot;rounded&quot;:0};" parent="1" vertex="1">
          <mxGeometry x="1020" y="660" width="10" height="30" as="geometry" />
        </mxCell>
        <mxCell id="2KQYl6xa4NdO4irz_cdd-93" value="send email" style="html=1;verticalAlign=bottom;endArrow=block;curved=0;rounded=0;exitX=1.025;exitY=0.007;exitDx=0;exitDy=0;exitPerimeter=0;entryX=-0.013;entryY=-0.001;entryDx=0;entryDy=0;entryPerimeter=0;" parent="1" source="2KQYl6xa4NdO4irz_cdd-92" target="2KQYl6xa4NdO4irz_cdd-89" edge="1">
          <mxGeometry width="80" relative="1" as="geometry">
            <mxPoint x="1069" y="671" as="sourcePoint" />
            <mxPoint x="1211" y="670" as="targetPoint" />
          </mxGeometry>
        </mxCell>
        <mxCell id="2KQYl6xa4NdO4irz_cdd-94" value="return" style="html=1;verticalAlign=bottom;endArrow=open;dashed=1;endSize=8;curved=0;rounded=0;exitX=-0.038;exitY=0.995;exitDx=0;exitDy=0;exitPerimeter=0;entryX=0.985;entryY=0.998;entryDx=0;entryDy=0;entryPerimeter=0;" parent="1" source="2KQYl6xa4NdO4irz_cdd-89" target="2KQYl6xa4NdO4irz_cdd-92" edge="1">
          <mxGeometry relative="1" as="geometry">
            <mxPoint x="1169" y="700" as="targetPoint" />
            <mxPoint x="1297" y="700" as="sourcePoint" />
          </mxGeometry>
        </mxCell>
        <mxCell id="gFZjyRnnP0gFH_lUAHbV-1" value="SignalR" style="shape=umlLifeline;perimeter=lifelinePerimeter;whiteSpace=wrap;html=1;container=1;dropTarget=0;collapsible=0;recursiveResize=0;outlineConnect=0;portConstraint=eastwest;newEdgeStyle={&quot;curved&quot;:0,&quot;rounded&quot;:0};" vertex="1" parent="1">
          <mxGeometry x="680" y="120" width="100" height="800" as="geometry" />
        </mxCell>
        <mxCell id="gFZjyRnnP0gFH_lUAHbV-2" value="" style="html=1;points=[[0,0,0,0,5],[0,1,0,0,-5],[1,0,0,0,5],[1,1,0,0,-5]];perimeter=orthogonalPerimeter;outlineConnect=0;targetShapes=umlLifeline;portConstraint=eastwest;newEdgeStyle={&quot;curved&quot;:0,&quot;rounded&quot;:0};" vertex="1" parent="gFZjyRnnP0gFH_lUAHbV-1">
          <mxGeometry x="45" y="650" width="10" height="30" as="geometry" />
        </mxCell>
        <mxCell id="gFZjyRnnP0gFH_lUAHbV-4" value="Notify UpdateOrders" style="html=1;verticalAlign=bottom;endArrow=block;curved=0;rounded=0;exitX=0.014;exitY=0.453;exitDx=0;exitDy=0;exitPerimeter=0;entryX=0.937;entryY=0.447;entryDx=0;entryDy=0;entryPerimeter=0;" edge="1" parent="1" source="gFZjyRnnP0gFH_lUAHbV-3" target="gFZjyRnnP0gFH_lUAHbV-2">
          <mxGeometry width="80" relative="1" as="geometry">
            <mxPoint x="1183" y="850" as="sourcePoint" />
            <mxPoint x="477" y="850" as="targetPoint" />
          </mxGeometry>
        </mxCell>
        <mxCell id="gFZjyRnnP0gFH_lUAHbV-6" value="Push notification" style="html=1;verticalAlign=bottom;endArrow=block;curved=0;rounded=0;entryX=0.987;entryY=0.002;entryDx=0;entryDy=0;entryPerimeter=0;" edge="1" parent="1" source="gFZjyRnnP0gFH_lUAHbV-2" target="gFZjyRnnP0gFH_lUAHbV-5">
          <mxGeometry width="80" relative="1" as="geometry">
            <mxPoint x="696" y="742" as="sourcePoint" />
            <mxPoint x="260" y="741" as="targetPoint" />
          </mxGeometry>
        </mxCell>
        <mxCell id="gFZjyRnnP0gFH_lUAHbV-8" value="" style="html=1;points=[[0,0,0,0,5],[0,1,0,0,-5],[1,0,0,0,5],[1,1,0,0,-5]];perimeter=orthogonalPerimeter;outlineConnect=0;targetShapes=umlLifeline;portConstraint=eastwest;newEdgeStyle={&quot;curved&quot;:0,&quot;rounded&quot;:0};" vertex="1" parent="1">
          <mxGeometry x="330" y="804" width="10" height="26" as="geometry" />
        </mxCell>
        <mxCell id="gFZjyRnnP0gFH_lUAHbV-9" value="refresh view" style="html=1;align=left;spacingLeft=2;endArrow=block;rounded=0;edgeStyle=orthogonalEdgeStyle;curved=0;rounded=0;" edge="1" target="gFZjyRnnP0gFH_lUAHbV-8" parent="1">
          <mxGeometry relative="1" as="geometry">
            <mxPoint x="335" y="784" as="sourcePoint" />
            <Array as="points">
              <mxPoint x="365" y="814" />
            </Array>
          </mxGeometry>
        </mxCell>
      </root>
    </mxGraphModel>
  </diagram>
</mxfile>
